<svg xmlns="http://www.w3.org/2000/svg" width="48" height="48" fill="none"><g clip-path="url(#a)"><path fill="url(#b)" d="M29.127 43.669a81.492 81.492 0 0 1-5.977 0C12.924 43.294 4.707 35.076 4.33 24.85a81.47 81.47 0 0 1 0-5.977C4.706 8.648 12.924.43 23.15.055a81.464 81.464 0 0 1 5.977 0C39.353.43 47.571 8.648 47.946 18.874a81.492 81.492 0 0 1 0 5.977c-.375 10.226-8.593 18.444-18.819 18.819v-.001Z"/><path fill="url(#c)" d="M29.127 43.669a81.492 81.492 0 0 1-5.977 0C12.924 43.294 4.707 35.076 4.33 24.85a81.47 81.47 0 0 1 0-5.977C4.706 8.648 12.924.43 23.15.055a81.464 81.464 0 0 1 5.977 0C39.353.43 47.571 8.648 47.946 18.874a81.492 81.492 0 0 1 0 5.977c-.375 10.226-8.593 18.444-18.819 18.819v-.001Z"/><path fill="url(#d)" d="M16.53 23.134h-5.023v16.139a19.477 19.477 0 0 0 11.643 4.396c1.992.073 3.985.073 5.977 0 2.31-.085 4.515-.571 6.551-1.388L16.531 23.134Z"/><path fill="url(#e)" d="M26.138 33.913c2.582 0 5.019.553 7.167 1.533 1.355.618 2.476-1.24 1.295-2.148a13.827 13.827 0 0 0-8.462-2.874c-3.184 0-6.119 1.071-8.462 2.874-1.18.909-.06 2.767 1.296 2.148a17.256 17.256 0 0 1 7.166-1.532Z"/><path fill="url(#f)" d="M26.138 33.913c2.582 0 5.019.553 7.167 1.533 1.355.618 2.476-1.24 1.295-2.148a13.827 13.827 0 0 0-8.462-2.874c-3.184 0-6.119 1.071-8.462 2.874-1.18.909-.06 2.767 1.296 2.148a17.256 17.256 0 0 1 7.166-1.532Z"/><path fill="url(#g)" d="M26.138 33.913c-2.582 0-5.018.553-7.166 1.533-1.356.618-2.476-1.24-1.296-2.148a13.827 13.827 0 0 1 8.462-2.874c3.185 0 6.12 1.071 8.462 2.874 1.181.909.061 2.767-1.295 2.148a17.256 17.256 0 0 0-7.167-1.532Z"/><path fill="url(#h)" d="m27.352 33.956-3.366-3.366a13.815 13.815 0 0 0-6.31 2.708c-1.18.909-.06 2.767 1.296 2.148a17.257 17.257 0 0 1 7.166-1.533c.41 0 .814.015 1.215.042v.001Z"/><path fill="url(#i)" d="M15.312 8.318a10.58 10.58 0 0 1 4.45-.62c.91.073 1.166-1.232.295-1.509a8.475 8.475 0 0 0-5.477.118 8.474 8.474 0 0 0-4.271 3.43c-.49.77.544 1.606 1.196.966a10.58 10.58 0 0 1 3.806-2.386l.001.001Z"/><path fill="url(#j)" d="M36.965 8.318a10.58 10.58 0 0 0-4.45-.62c-.91.073-1.166-1.232-.295-1.509a8.476 8.476 0 0 1 5.477.118c1.834.668 3.3 1.9 4.271 3.43.49.77-.545 1.606-1.196.966a10.581 10.581 0 0 0-3.806-2.386l-.001.001Z"/><path fill="url(#k)" d="M21.355 20.551a3.387 3.387 0 0 1-3.649 3.377 3.397 3.397 0 0 1-3.058-4.051.534.534 0 0 1 .522-.431h5.597c.254 0 .47.18.52.43.045.218.068.444.068.675Z"/><path fill="url(#l)" d="M21.355 20.551a3.387 3.387 0 0 1-3.649 3.377 3.397 3.397 0 0 1-3.058-4.051.534.534 0 0 1 .522-.431h5.597c.254 0 .47.18.52.43.045.218.068.444.068.675Z"/><path fill="url(#m)" d="M21.355 20.551a3.387 3.387 0 0 1-3.649 3.377 3.397 3.397 0 0 1-3.058-4.051.534.534 0 0 1 .522-.431h5.597c.254 0 .47.18.52.43.045.218.068.444.068.675Z"/><path fill="url(#n)" d="M37.695 20.551a3.387 3.387 0 0 1-3.649 3.377 3.397 3.397 0 0 1-3.058-4.051.534.534 0 0 1 .521-.431h5.597c.254 0 .47.18.521.43.045.218.068.444.068.675Z"/><path fill="url(#o)" d="M37.695 20.551a3.387 3.387 0 0 1-3.649 3.377 3.397 3.397 0 0 1-3.058-4.051.534.534 0 0 1 .521-.431h5.597c.254 0 .47.18.521.43.045.218.068.444.068.675Z"/><path fill="url(#p)" d="M37.695 20.551a3.387 3.387 0 0 1-3.649 3.377 3.397 3.397 0 0 1-3.058-4.051.534.534 0 0 1 .521-.431h5.597c.254 0 .47.18.521.43.045.218.068.444.068.675Z"/><path fill="url(#q)" d="M13.767 18.416h8.378a1.029 1.029 0 1 1 0 2.058h-8.378a1.03 1.03 0 1 1 0-2.058Z"/><path fill="url(#r)" d="M13.767 18.416h8.378a1.029 1.029 0 1 1 0 2.058h-8.378a1.03 1.03 0 1 1 0-2.058Z"/><path fill="url(#s)" d="M30.131 18.416h8.378a1.03 1.03 0 1 1 0 2.058H30.13a1.03 1.03 0 1 1 0-2.058Z"/><path fill="url(#t)" d="M30.131 18.416h8.378a1.03 1.03 0 1 1 0 2.058H30.13a1.03 1.03 0 1 1 0-2.058Z"/><path fill="url(#u)" d="M13.655 26.195a4.55 4.55 0 0 0-4.55-4.55H4.55a4.55 4.55 0 0 0-4.231 6.223c.417 1.052.466 2.222.048 3.274A5.16 5.16 0 0 0 0 33.05c0 3.255 3.056 5.893 6.827 5.893 3.77 0 6.827-2.639 6.827-5.894 0-1.344-.522-2.582-1.4-3.574a4.534 4.534 0 0 0 1.4-3.281Z"/><path fill="url(#v)" d="M13.655 26.195a4.55 4.55 0 0 0-4.55-4.55H4.55a4.55 4.55 0 0 0-4.231 6.223c.417 1.052.466 2.222.048 3.274A5.16 5.16 0 0 0 0 33.05c0 3.255 3.056 5.893 6.827 5.893 3.77 0 6.827-2.639 6.827-5.894 0-1.344-.522-2.582-1.4-3.574a4.534 4.534 0 0 0 1.4-3.281Z"/><path fill="url(#w)" d="M6.828 38.944c3.77 0 6.827-2.639 6.827-5.893 0-3.255-3.057-5.894-6.827-5.894S0 29.796 0 33.051c0 3.254 3.056 5.893 6.827 5.893Z"/><path fill="url(#x)" d="M13.655 26.195c0 1.289-.538 2.452-1.4 3.28-1.248-1.41-3.215-2.318-5.427-2.318-2.996 0-5.543 1.666-6.461 3.985.418-1.052.369-2.221-.048-3.273A4.502 4.502 0 0 1 0 26.195a4.55 4.55 0 0 1 4.55-4.55h4.555a4.55 4.55 0 0 1 4.55 4.55Z"/><path fill="url(#y)" d="M6.487 39.182a6.572 6.572 0 0 1 7.224-3.992 6.561 6.561 0 0 0-.72 6.299c.218.53.498 1.016.826 1.453 1.894 2.523-.743 5.99-3.674 4.824a5.029 5.029 0 0 1-.162-.068c-3.275-1.404-4.839-5.218-3.494-8.517Z"/><path fill="url(#z)" d="M6.487 39.182a6.572 6.572 0 0 1 7.224-3.992 6.561 6.561 0 0 0-.72 6.299c.218.53.498 1.016.826 1.453 1.894 2.523-.743 5.99-3.674 4.824a5.029 5.029 0 0 1-.162-.068c-3.275-1.404-4.839-5.218-3.494-8.517Z"/><path fill="url(#A)" d="M6.606 34.421c-.434.476-.797 1.253-.797 2.517 0 1.719 1.447 3.27 3.175 3.27h3.066a5.67 5.67 0 0 0 5.613-4.875l.857-6.072c.625-4.418-2.806-8.368-7.268-8.368H8.267c-.133.01-2.139.213-2.139 3.116 0 .728.274 1.424.721 1.973-.396.457-.72 1.188-.72 2.356 0 .756.295 1.478.774 2.037-.42.453-.775 1.194-.775 2.414 0 .584.177 1.148.479 1.632h-.001Z"/><path fill="url(#B)" d="M6.606 34.421c-.434.476-.797 1.253-.797 2.517 0 1.719 1.447 3.27 3.175 3.27h3.066a5.67 5.67 0 0 0 5.613-4.875l.857-6.072c.625-4.418-2.806-8.368-7.268-8.368H8.267c-.133.01-2.139.213-2.139 3.116 0 .728.274 1.424.721 1.973-.396.457-.72 1.188-.72 2.356 0 .756.295 1.478.774 2.037-.42.453-.775 1.194-.775 2.414 0 .584.177 1.148.479 1.632h-.001Z"/><path fill="url(#C)" d="M6.606 34.421c-.434.476-.797 1.253-.797 2.517 0 1.719 1.447 3.27 3.175 3.27h3.066a5.67 5.67 0 0 0 5.613-4.875l.857-6.072c.625-4.418-2.806-8.368-7.268-8.368H8.267c-.133.01-2.139.213-2.139 3.116 0 .728.274 1.424.721 1.973-.396.457-.72 1.188-.72 2.356 0 .756.295 1.478.774 2.037-.42.453-.775 1.194-.775 2.414 0 .584.177 1.148.479 1.632h-.001Z"/><path fill="url(#D)" d="M6.128 32.79c0-1.22.354-1.963.773-2.415.558.65 1.367 1.077 2.25 1.077h1.87c.849 0 1.617-.34 2.179-.89a3.115 3.115 0 0 1-2.179 5.34h-1.87c-1.645.001-3.024-1.476-3.024-3.112Z"/><path fill="url(#E)" d="M11.022 35.903h-1.87c-1.057 0-2.004-.61-2.545-1.48-.434.475-.797 1.252-.797 2.516 0 1.719 1.447 3.27 3.175 3.27h2.2a3.27 3.27 0 0 0 2.336-5.56 3.111 3.111 0 0 1-2.499 1.254Z"/><path fill="url(#F)" d="M6.128 28.339c0-1.168.324-1.9.72-2.356.558.686 1.39 1.142 2.304 1.142h1.87c.879 0 1.673-.365 2.239-.951a3.115 3.115 0 0 1-2.24 5.278h-1.87c-1.645 0-3.024-1.477-3.024-3.113Z"/><path fill="url(#G)" d="M8.985 40.208h2.059V20.893H8.267c-.133.01-2.139.213-2.139 3.116 0 .728.274 1.424.721 1.973-.396.457-.72 1.188-.72 2.356 0 .756.295 1.478.774 2.037-.42.453-.775 1.194-.775 2.414 0 .584.177 1.148.479 1.632-.434.476-.797 1.253-.797 2.517 0 1.719 1.447 3.27 3.175 3.27Z"/><path fill="url(#H)" d="M8.985 40.208h2.059V20.893H8.267c-.133.01-2.139.213-2.139 3.116 0 .728.274 1.424.721 1.973-.396.457-.72 1.188-.72 2.356 0 .756.295 1.478.774 2.037-.42.453-.775 1.194-.775 2.414 0 .584.177 1.148.479 1.632-.434.476-.797 1.253-.797 2.517 0 1.719 1.447 3.27 3.175 3.27Z"/></g><defs><linearGradient id="d" x1="23.572" x2="15.018" y1="34.832" y2="32.292" gradientUnits="userSpaceOnUse"><stop stop-color="#FE9738" stop-opacity="0"/><stop offset=".1" stop-color="#FE9636" stop-opacity=".02"/><stop offset=".23" stop-color="#FE9433" stop-opacity=".08"/><stop offset=".36" stop-color="#FE912E" stop-opacity=".17"/><stop offset=".5" stop-color="#FE8D26" stop-opacity=".31"/><stop offset=".65" stop-color="#FE871D" stop-opacity=".48"/><stop offset=".81" stop-color="#FE8011" stop-opacity=".69"/><stop offset=".96" stop-color="#FE7804" stop-opacity=".94"/><stop offset="1" stop-color="#FE7701"/></linearGradient><linearGradient id="e" x1="26.138" x2="26.138" y1="35.971" y2="31.076" gradientUnits="userSpaceOnUse"><stop stop-color="#7A6D79"/><stop offset=".25" stop-color="#6C616C"/><stop offset=".68" stop-color="#5B535B"/><stop offset="1" stop-color="#554E56"/></linearGradient><linearGradient id="f" x1="25.597" x2="24.668" y1="32.855" y2="30.421" gradientUnits="userSpaceOnUse"><stop stop-color="#593636" stop-opacity="0"/><stop offset=".28" stop-color="#543333" stop-opacity=".1"/><stop offset=".6" stop-color="#482D2E" stop-opacity=".4"/><stop offset=".93" stop-color="#332224" stop-opacity=".88"/><stop offset="1" stop-color="#2F2022"/></linearGradient><linearGradient id="g" x1="26.68" x2="27.609" y1="32.855" y2="30.421" gradientUnits="userSpaceOnUse"><stop stop-color="#593636" stop-opacity="0"/><stop offset=".28" stop-color="#543333" stop-opacity=".1"/><stop offset=".6" stop-color="#482D2E" stop-opacity=".4"/><stop offset=".93" stop-color="#332224" stop-opacity=".88"/><stop offset="1" stop-color="#2F2022"/></linearGradient><linearGradient id="h" x1="23.678" x2="18.465" y1="33.401" y2="32.733" gradientUnits="userSpaceOnUse"><stop stop-color="#593636" stop-opacity="0"/><stop offset=".28" stop-color="#543333" stop-opacity=".1"/><stop offset=".6" stop-color="#482D2E" stop-opacity=".4"/><stop offset=".93" stop-color="#332224" stop-opacity=".88"/><stop offset="1" stop-color="#2F2022"/></linearGradient><linearGradient id="i" x1="15.508" x2="13.816" y1="8.873" y2="3.995" gradientUnits="userSpaceOnUse"><stop stop-color="#FAC600"/><stop offset="1" stop-color="#FE860A"/></linearGradient><linearGradient id="j" x1="36.539" x2="37.602" y1="9.517" y2="6.508" gradientUnits="userSpaceOnUse"><stop stop-color="#FAC600"/><stop offset="1" stop-color="#FE860A"/></linearGradient><linearGradient id="m" x1="17.968" x2="17.968" y1="20.782" y2="19.524" gradientUnits="userSpaceOnUse"><stop stop-color="#593636" stop-opacity="0"/><stop offset=".28" stop-color="#543333" stop-opacity=".1"/><stop offset=".6" stop-color="#482D2E" stop-opacity=".4"/><stop offset=".93" stop-color="#332224" stop-opacity=".88"/><stop offset="1" stop-color="#2F2022"/></linearGradient><linearGradient id="p" x1="34.308" x2="34.308" y1="20.752" y2="19.649" gradientUnits="userSpaceOnUse"><stop stop-color="#593636" stop-opacity="0"/><stop offset=".28" stop-color="#543333" stop-opacity=".1"/><stop offset=".6" stop-color="#482D2E" stop-opacity=".4"/><stop offset=".93" stop-color="#332224" stop-opacity=".88"/><stop offset="1" stop-color="#2F2022"/></linearGradient><linearGradient id="q" x1="17.956" x2="17.956" y1="21.186" y2="18.479" gradientUnits="userSpaceOnUse"><stop stop-color="#7A6D79"/><stop offset=".25" stop-color="#6C616C"/><stop offset=".68" stop-color="#5B535B"/><stop offset="1" stop-color="#554E56"/></linearGradient><linearGradient id="r" x1="17.956" x2="17.956" y1="19.883" y2="18.854" gradientUnits="userSpaceOnUse"><stop stop-color="#593636" stop-opacity="0"/><stop offset=".28" stop-color="#543333" stop-opacity=".1"/><stop offset=".6" stop-color="#482D2E" stop-opacity=".4"/><stop offset=".93" stop-color="#332224" stop-opacity=".88"/><stop offset="1" stop-color="#2F2022"/></linearGradient><linearGradient id="s" x1="34.32" x2="34.32" y1="21.186" y2="18.479" gradientUnits="userSpaceOnUse"><stop stop-color="#7A6D79"/><stop offset=".25" stop-color="#6C616C"/><stop offset=".68" stop-color="#5B535B"/><stop offset="1" stop-color="#554E56"/></linearGradient><linearGradient id="t" x1="34.32" x2="34.32" y1="19.883" y2="18.854" gradientUnits="userSpaceOnUse"><stop stop-color="#593636" stop-opacity="0"/><stop offset=".28" stop-color="#543333" stop-opacity=".1"/><stop offset=".6" stop-color="#482D2E" stop-opacity=".4"/><stop offset=".93" stop-color="#332224" stop-opacity=".88"/><stop offset="1" stop-color="#2F2022"/></linearGradient><linearGradient id="u" x1=".458" x2="8.077" y1="28.128" y2="30.4" gradientUnits="userSpaceOnUse"><stop stop-color="#FEF0AE"/><stop offset="1" stop-color="#FAC600"/></linearGradient><linearGradient id="v" x1="2.48" x2="7.38" y1="29.851" y2="30.252" gradientUnits="userSpaceOnUse"><stop stop-color="#FE9738" stop-opacity="0"/><stop offset=".1" stop-color="#FE9636" stop-opacity=".02"/><stop offset=".23" stop-color="#FE9433" stop-opacity=".08"/><stop offset=".36" stop-color="#FE912E" stop-opacity=".17"/><stop offset=".5" stop-color="#FE8D26" stop-opacity=".31"/><stop offset=".65" stop-color="#FE871D" stop-opacity=".48"/><stop offset=".81" stop-color="#FE8011" stop-opacity=".69"/><stop offset=".96" stop-color="#FE7804" stop-opacity=".94"/><stop offset="1" stop-color="#FE7701"/></linearGradient><linearGradient id="w" x1="6.415" x2="5.434" y1="34.778" y2="38.877" gradientUnits="userSpaceOnUse"><stop stop-color="#FE9738" stop-opacity="0"/><stop offset=".1" stop-color="#FE9636" stop-opacity=".02"/><stop offset=".23" stop-color="#FE9433" stop-opacity=".08"/><stop offset=".36" stop-color="#FE912E" stop-opacity=".17"/><stop offset=".5" stop-color="#FE8D26" stop-opacity=".31"/><stop offset=".65" stop-color="#FE871D" stop-opacity=".48"/><stop offset=".81" stop-color="#FE8011" stop-opacity=".69"/><stop offset=".96" stop-color="#FE7804" stop-opacity=".94"/><stop offset="1" stop-color="#FE7701"/></linearGradient><linearGradient id="x" x1="2.348" x2="-.815" y1="27.328" y2="28.308" gradientUnits="userSpaceOnUse"><stop stop-color="#FE9738" stop-opacity="0"/><stop offset=".1" stop-color="#FE9636" stop-opacity=".02"/><stop offset=".23" stop-color="#FE9433" stop-opacity=".08"/><stop offset=".36" stop-color="#FE912E" stop-opacity=".17"/><stop offset=".5" stop-color="#FE8D26" stop-opacity=".31"/><stop offset=".65" stop-color="#FE871D" stop-opacity=".48"/><stop offset=".81" stop-color="#FE8011" stop-opacity=".69"/><stop offset=".96" stop-color="#FE7804" stop-opacity=".94"/><stop offset="1" stop-color="#FE7701"/></linearGradient><linearGradient id="A" x1="5.025" x2="15.384" y1="26.112" y2="33.998" gradientUnits="userSpaceOnUse"><stop stop-color="#FEF0AE"/><stop offset="1" stop-color="#FAC600"/></linearGradient><linearGradient id="B" x1="11.505" x2="18.991" y1="30.889" y2="33.362" gradientUnits="userSpaceOnUse"><stop stop-color="#FE9738" stop-opacity="0"/><stop offset=".1" stop-color="#FE9636" stop-opacity=".02"/><stop offset=".23" stop-color="#FE9433" stop-opacity=".08"/><stop offset=".36" stop-color="#FE912E" stop-opacity=".17"/><stop offset=".5" stop-color="#FE8D26" stop-opacity=".31"/><stop offset=".65" stop-color="#FE871D" stop-opacity=".48"/><stop offset=".81" stop-color="#FE8011" stop-opacity=".69"/><stop offset=".96" stop-color="#FE7804" stop-opacity=".94"/><stop offset="1" stop-color="#FE7701"/></linearGradient><linearGradient id="C" x1="14.633" x2="15.903" y1="36.393" y2="38.666" gradientUnits="userSpaceOnUse"><stop stop-color="#FAC600" stop-opacity="0"/><stop offset="1" stop-color="#FEF0AE"/></linearGradient><linearGradient id="D" x1="10.537" x2="8.096" y1="33.461" y2="29.347" gradientUnits="userSpaceOnUse"><stop stop-color="#FE9738" stop-opacity="0"/><stop offset=".1" stop-color="#FE9636" stop-opacity=".02"/><stop offset=".23" stop-color="#FE9433" stop-opacity=".08"/><stop offset=".36" stop-color="#FE912E" stop-opacity=".17"/><stop offset=".5" stop-color="#FE8D26" stop-opacity=".31"/><stop offset=".65" stop-color="#FE871D" stop-opacity=".48"/><stop offset=".81" stop-color="#FE8011" stop-opacity=".69"/><stop offset=".96" stop-color="#FE7804" stop-opacity=".94"/><stop offset="1" stop-color="#FE7701"/></linearGradient><linearGradient id="E" x1="10.225" x2="8.682" y1="37.157" y2="33.28" gradientUnits="userSpaceOnUse"><stop stop-color="#FE9738" stop-opacity="0"/><stop offset=".1" stop-color="#FE9636" stop-opacity=".02"/><stop offset=".23" stop-color="#FE9433" stop-opacity=".08"/><stop offset=".36" stop-color="#FE912E" stop-opacity=".17"/><stop offset=".5" stop-color="#FE8D26" stop-opacity=".31"/><stop offset=".65" stop-color="#FE871D" stop-opacity=".48"/><stop offset=".81" stop-color="#FE8011" stop-opacity=".69"/><stop offset=".96" stop-color="#FE7804" stop-opacity=".94"/><stop offset="1" stop-color="#FE7701"/></linearGradient><linearGradient id="F" x1="10.537" x2="8.402" y1="29" y2="25.442" gradientUnits="userSpaceOnUse"><stop stop-color="#FE9738" stop-opacity="0"/><stop offset=".1" stop-color="#FE9636" stop-opacity=".02"/><stop offset=".23" stop-color="#FE9433" stop-opacity=".08"/><stop offset=".36" stop-color="#FE912E" stop-opacity=".17"/><stop offset=".5" stop-color="#FE8D26" stop-opacity=".31"/><stop offset=".65" stop-color="#FE871D" stop-opacity=".48"/><stop offset=".81" stop-color="#FE8011" stop-opacity=".69"/><stop offset=".96" stop-color="#FE7804" stop-opacity=".94"/><stop offset="1" stop-color="#FE7701"/></linearGradient><linearGradient id="G" x1="8.233" x2="5.702" y1="30.413" y2="30.21" gradientUnits="userSpaceOnUse"><stop stop-color="#FE9738" stop-opacity="0"/><stop offset=".1" stop-color="#FE9636" stop-opacity=".02"/><stop offset=".23" stop-color="#FE9433" stop-opacity=".08"/><stop offset=".36" stop-color="#FE912E" stop-opacity=".17"/><stop offset=".5" stop-color="#FE8D26" stop-opacity=".31"/><stop offset=".65" stop-color="#FE871D" stop-opacity=".48"/><stop offset=".81" stop-color="#FE8011" stop-opacity=".69"/><stop offset=".96" stop-color="#FE7804" stop-opacity=".94"/><stop offset="1" stop-color="#FE7701"/></linearGradient><linearGradient id="H" x1="7.287" x2="5.68" y1="30.66" y2="30.734" gradientUnits="userSpaceOnUse"><stop stop-color="#FAC600" stop-opacity="0"/><stop offset="1" stop-color="#FEF0AE"/></linearGradient><radialGradient id="b" cx="0" cy="0" r="1" gradientTransform="translate(18.666 11.382) scale(30.0281)" gradientUnits="userSpaceOnUse"><stop stop-color="#FEF0AE"/><stop offset="1" stop-color="#FAC600"/></radialGradient><radialGradient id="c" cx="0" cy="0" r="1" gradientTransform="translate(21.685 18.484) scale(27.5916)" gradientUnits="userSpaceOnUse"><stop stop-color="#FE9738" stop-opacity="0"/><stop offset=".22" stop-color="#FE9738" stop-opacity="0"/><stop offset=".33" stop-color="#FE9738" stop-opacity=".04"/><stop offset=".43" stop-color="#FE9738" stop-opacity=".09"/><stop offset=".5" stop-color="#FE9738" stop-opacity=".17"/><stop offset=".58" stop-color="#FE9738" stop-opacity=".27"/><stop offset=".64" stop-color="#FE9738" stop-opacity=".39"/><stop offset=".7" stop-color="#FE9738" stop-opacity=".53"/><stop offset=".76" stop-color="#FE9738" stop-opacity=".7"/><stop offset=".81" stop-color="#FE9738" stop-opacity=".88"/><stop offset=".84" stop-color="#FE9738"/><stop offset=".87" stop-color="#FE9738" stop-opacity=".99"/><stop offset=".89" stop-color="#FE9738" stop-opacity=".95"/><stop offset=".91" stop-color="#FE9738" stop-opacity=".88"/><stop offset=".92" stop-color="#FE9738" stop-opacity=".79"/><stop offset=".94" stop-color="#FE9738" stop-opacity=".66"/><stop offset=".96" stop-color="#FE9738" stop-opacity=".51"/><stop offset=".98" stop-color="#FE9738" stop-opacity=".34"/><stop offset=".99" stop-color="#FE9738" stop-opacity=".14"/><stop offset="1" stop-color="#FE9738" stop-opacity=".01"/></radialGradient><radialGradient id="k" cx="0" cy="0" r="1" gradientTransform="translate(17.102 20.264) scale(3.05906)" gradientUnits="userSpaceOnUse"><stop stop-color="#7A6D79"/><stop offset=".25" stop-color="#6C616C"/><stop offset=".68" stop-color="#5B535B"/><stop offset="1" stop-color="#554E56"/></radialGradient><radialGradient id="l" cx="0" cy="0" r="1" gradientTransform="translate(18.1 20.523) scale(3.65625)" gradientUnits="userSpaceOnUse"><stop stop-color="#593636" stop-opacity="0"/><stop offset=".35" stop-color="#563435" stop-opacity=".05"/><stop offset=".54" stop-color="#4F3131" stop-opacity=".22"/><stop offset=".69" stop-color="#432A2B" stop-opacity=".5"/><stop offset=".82" stop-color="#322123" stop-opacity=".91"/><stop offset=".84" stop-color="#2F2022"/><stop offset=".89" stop-color="#312123" stop-opacity=".93"/><stop offset=".94" stop-color="#3B2627" stop-opacity=".71"/><stop offset=".97" stop-color="#4A2E2F" stop-opacity=".35"/><stop offset="1" stop-color="#593636" stop-opacity=".01"/></radialGradient><radialGradient id="n" cx="0" cy="0" r="1" gradientTransform="translate(33.443 20.264) scale(3.05906)" gradientUnits="userSpaceOnUse"><stop stop-color="#7A6D79"/><stop offset=".25" stop-color="#6C616C"/><stop offset=".68" stop-color="#5B535B"/><stop offset="1" stop-color="#554E56"/></radialGradient><radialGradient id="o" cx="0" cy="0" r="1" gradientTransform="translate(34.44 20.523) scale(3.65625)" gradientUnits="userSpaceOnUse"><stop stop-color="#593636" stop-opacity="0"/><stop offset=".35" stop-color="#563435" stop-opacity=".05"/><stop offset=".54" stop-color="#4F3131" stop-opacity=".22"/><stop offset=".69" stop-color="#432A2B" stop-opacity=".5"/><stop offset=".82" stop-color="#322123" stop-opacity=".91"/><stop offset=".84" stop-color="#2F2022"/><stop offset=".89" stop-color="#312123" stop-opacity=".93"/><stop offset=".94" stop-color="#3B2627" stop-opacity=".71"/><stop offset=".97" stop-color="#4A2E2F" stop-opacity=".35"/><stop offset="1" stop-color="#593636" stop-opacity=".01"/></radialGradient><radialGradient id="y" cx="0" cy="0" r="1" gradientTransform="rotate(180 6.71 22.715) scale(8.71406)" gradientUnits="userSpaceOnUse"><stop stop-color="#FEF0AE"/><stop offset="1" stop-color="#FAC600"/></radialGradient><radialGradient id="z" cx="0" cy="0" r="1" gradientTransform="rotate(180 6.343 22.38) scale(7.845)" gradientUnits="userSpaceOnUse"><stop stop-color="#FE9738" stop-opacity="0"/><stop offset=".22" stop-color="#FE9738" stop-opacity="0"/><stop offset=".33" stop-color="#FE9738" stop-opacity=".04"/><stop offset=".43" stop-color="#FE9738" stop-opacity=".09"/><stop offset=".5" stop-color="#FE9738" stop-opacity=".17"/><stop offset=".58" stop-color="#FE9738" stop-opacity=".27"/><stop offset=".64" stop-color="#FE9738" stop-opacity=".39"/><stop offset=".7" stop-color="#FE9738" stop-opacity=".53"/><stop offset=".76" stop-color="#FE9738" stop-opacity=".7"/><stop offset=".81" stop-color="#FE9738" stop-opacity=".88"/><stop offset=".84" stop-color="#FE9738"/><stop offset=".87" stop-color="#FE9738" stop-opacity=".99"/><stop offset=".89" stop-color="#FE9738" stop-opacity=".95"/><stop offset=".91" stop-color="#FE9738" stop-opacity=".88"/><stop offset=".92" stop-color="#FE9738" stop-opacity=".79"/><stop offset=".94" stop-color="#FE9738" stop-opacity=".66"/><stop offset=".96" stop-color="#FE9738" stop-opacity=".51"/><stop offset=".98" stop-color="#FE9738" stop-opacity=".34"/><stop offset=".99" stop-color="#FE9738" stop-opacity=".14"/><stop offset="1" stop-color="#FE9738" stop-opacity=".01"/></radialGradient><clipPath id="a"><path fill="#fff" d="M0 0h48v48H0z"/></clipPath></defs></svg>
