<svg xmlns="http://www.w3.org/2000/svg" width="48" height="48" fill="none"><g clip-path="url(#a)"><path fill="#FFCD00" d="M24 48c13.255 0 24-10.745 24-24S37.255 0 24 0 0 10.745 0 24s10.745 24 24 24Z"/><path fill="#FFB400" fill-rule="evenodd" d="M24 48a12 12 0 0 1 0-24h24a24 24 0 0 1-24 24Z" clip-rule="evenodd"/><path fill="#FFEB00" fill-rule="evenodd" d="M24 0a12 12 0 0 1 0 24H0A24 24 0 0 1 24 0Z" clip-rule="evenodd"/><path fill="#46321E" d="M15 18c1.657 0 3-2.015 3-4.5S16.657 9 15 9s-3 2.015-3 4.5 1.343 4.5 3 4.5Z"/><path fill="#46321E" fill-rule="evenodd" d="M33 12h-6v3h3a3 3 0 0 0 6 0h3v-3h-6Z" clip-rule="evenodd"/><path fill="#46321E" d="M9 3h12v3H9V3ZM15 24h12v3H15v-3Z"/><path fill="#FF961E" fill-rule="evenodd" d="M0 48V36a3 3 0 0 0 3-3v-9a6 6 0 0 1 6 6v3h18a3 3 0 0 1 0 6H16.5v6a3 3 0 0 1-3 3H0Z" clip-rule="evenodd"/></g><defs><clipPath id="a"><path fill="#fff" d="M0 0h48v48H0z"/></clipPath></defs></svg>
