<svg xmlns="http://www.w3.org/2000/svg" fill="none" viewBox="0 0 40 40"><path fill="#000" fill-rule="evenodd" d="M7.25 3.333c-2.12 0-3.917 1.797-3.917 3.917v7.5c0 2.12 1.796 3.917 3.917 3.917h7.5c2.12 0 3.917-1.796 3.917-3.917v-7.5c0-2.12-1.797-3.917-3.917-3.917h-7.5ZM6.667 7.25c0-.28.303-.583.583-.583h7.5c.28 0 .583.304.583.583v7.5c0 .28-.303.584-.583.584h-7.5c-.28 0-.583-.304-.583-.584v-7.5ZM25.25 3.333c-2.12 0-3.917 1.797-3.917 3.917v7.5c0 2.12 1.796 3.917 3.917 3.917h7.5c2.12 0 3.917-1.796 3.917-3.917v-7.5c0-2.12-1.797-3.917-3.917-3.917h-7.5Zm-.583 3.917c0-.28.303-.583.583-.583h7.5c.28 0 .583.304.583.583v7.5c0 .28-.304.584-.583.584h-7.5c-.28 0-.583-.304-.583-.584v-7.5ZM3.333 25.25c0-2.12 1.796-3.917 3.917-3.917h7.5c2.12 0 3.917 1.796 3.917 3.917v7.5c0 2.12-1.797 3.916-3.917 3.916h-7.5c-2.12 0-3.917-1.796-3.917-3.916v-7.5Zm3.917-.584c-.28 0-.583.304-.583.584v7.5c0 .28.303.583.583.583h7.5c.28 0 .583-.304.583-.583v-7.5c0-.28-.303-.584-.583-.584h-7.5ZM25.25 21.333c-2.12 0-3.917 1.796-3.917 3.917v7.5c0 2.12 1.796 3.916 3.917 3.916h7.5c2.12 0 3.917-1.796 3.917-3.916v-7.5c0-2.12-1.797-3.917-3.917-3.917h-7.5Zm-.583 3.917c0-.28.303-.584.583-.584h7.5c.28 0 .583.304.583.584v7.5c0 .28-.304.583-.583.583h-7.5c-.28 0-.583-.304-.583-.583v-7.5Z" clip-rule="evenodd"/></svg>
