<svg xmlns="http://www.w3.org/2000/svg" width="48" height="48" fill="none"><g clip-path="url(#a)"><path fill="#FFCD00" d="M24 48c13.255 0 24-10.745 24-24S37.255 0 24 0 0 10.745 0 24s10.745 24 24 24Z"/><path fill="#FFB400" fill-rule="evenodd" d="M24 48a12 12 0 0 1 0-24h24a24 24 0 0 1-24 24Z" clip-rule="evenodd"/><path fill="#FFEB00" fill-rule="evenodd" d="M24 0a12 12 0 0 1 0 24H0A24 24 0 0 1 24 0Z" clip-rule="evenodd"/><path fill="#46321E" fill-rule="evenodd" d="M9 24.002 39 24a14.963 14.963 0 0 1-5.078 11.25H14.078A14.996 14.996 0 0 1 9 24.001Z" clip-rule="evenodd"/><path fill="#C8005A" fill-rule="evenodd" d="M14.077 35.25A11.987 11.987 0 0 1 23.999 30h.003a11.987 11.987 0 0 1 9.921 5.249A14.943 14.943 0 0 1 24 39H24a14.999 14.999 0 0 1-9.922-3.75Z" clip-rule="evenodd"/><path fill="#FF961E" d="M41.413 16.607 39 24.032l-6.317-4.59h-7.81l2.414-7.427-2.413-7.425h7.809L39 0l2.413 7.427 6.317 4.59-6.317 4.59ZM6.587 16.607 9 24.032l6.317-4.59h7.81l-2.414-7.427 2.414-7.425h-7.81L9 0 6.587 7.427.27 12.017l6.317 4.59Z"/></g><defs><clipPath id="a"><path fill="#fff" d="M0 0h48v48H0z"/></clipPath></defs></svg>
